<svg xmlns="http://www.w3.org/2000/svg" viewBox="0 0 126.67 123"><defs><style>.cls-1{fill:#fff;}</style></defs><g id="Layer_2" data-name="Layer 2"><g id="Layer_1-2" data-name="Layer 1"><path d="M20,0H126.67a0,0,0,0,1,0,0V123a0,0,0,0,1,0,0H20A20,20,0,0,1,0,103V20A20,20,0,0,1,20,0Z"/><path class="cls-1" d="M47.06,100.6A11.16,11.16,0,0,1,35.91,89.45V33.69A11.16,11.16,0,0,1,47.06,22.54H80.5A11.18,11.18,0,0,1,91.67,33.69V89.45A11.18,11.18,0,0,1,80.5,100.6ZM80.5,89.45V33.69H47.06V89.45Z"/></g></g></svg>