<svg xmlns="http://www.w3.org/2000/svg" viewBox="0 0 332.09 98.41"><g id="Layer_2" data-name="Layer 2"><g id="Layer_1-2" data-name="Layer 1"><path d="M14.06,98.41a13.53,13.53,0,0,1-9.94-4.12A13.54,13.54,0,0,1,0,84.35V14.06A13.49,13.49,0,0,1,4.12,4.12,13.52,13.52,0,0,1,14.06,0H56.22a13.51,13.51,0,0,1,9.94,4.12,13.49,13.49,0,0,1,4.13,9.94V84.35A14.08,14.08,0,0,1,56.22,98.41ZM56.22,84.35V14.06H14.06V84.35Z"/><path d="M104.16,98.41V14.06H76.05V0h70.3V14.06H118.22V98.41Z"/><path d="M154.87,98.41V0h56.22A13.51,13.51,0,0,1,221,4.12a13.53,13.53,0,0,1,4.13,9.94V42.18h-.07l-7,7,7,7V98.41H211.09V56.24H183l-7-7,7-7h28.11V14.06H168.92V98.41Z"/><path d="M233.69,98.41V0h42.16V.05l7,7,7-7h42.18V98.41H318V14.06H289.91V70.29H275.85V14.06H247.74V98.41Z"/></g></g></svg>