<svg xmlns="http://www.w3.org/2000/svg" viewBox="0 0 364 123"><defs><style>.cls-1{fill:#fff;}</style></defs><g id="Layer_2" data-name="Layer 2"><g id="Layer_1-2" data-name="Layer 1"><path d="M20,0H364a0,0,0,0,1,0,0V123a0,0,0,0,1,0,0H20A20,20,0,0,1,0,103V20A20,20,0,0,1,20,0Z"/><path class="cls-1" d="M26,111A13.51,13.51,0,0,1,16,106.83a13.54,13.54,0,0,1-4.12-9.94V26.6A13.49,13.49,0,0,1,16,16.66,13.52,13.52,0,0,1,26,12.54H68.13a13.51,13.51,0,0,1,9.94,4.12A13.55,13.55,0,0,1,82.2,26.6V96.89A14.08,14.08,0,0,1,68.13,111ZM68.13,96.89V26.6H26V96.89Z"/><path class="cls-1" d="M116.07,111V26.6H88V12.54h70.29V26.6H130.13V111Z"/><path class="cls-1" d="M166.78,111V12.54H223a13.51,13.51,0,0,1,9.94,4.12,13.55,13.55,0,0,1,4.13,9.94V54.72H237l-7,7,7,7V111H223V68.78H194.89l-7-7,7-7H223V26.6H180.83V111Z"/><path class="cls-1" d="M245.59,111V12.54h42.17v.05l7,7,7-7H344V111H329.94V26.6H301.82V82.84H287.76V26.6H259.65V111Z"/></g></g></svg>