<?xml version="1.0" encoding="utf-8"?>
<!-- Generator: Adobe Illustrator 25.0.1, SVG Export Plug-In . SVG Version: 6.00 Build 0)  -->
<svg version="1.1" id="Layer_1" xmlns="http://www.w3.org/2000/svg" xmlns:xlink="http://www.w3.org/1999/xlink" x="0px" y="0px"
	 viewBox="0 0 50 50" style="enable-background:new 0 0 50 50;" xml:space="preserve">
<style type="text/css">
	.st0{fill:#FFFFFF;}
</style>
<path class="st0" d="M0,15.3h7.8l1.1,1.2v7.1l-1.1,1.1H0v-6.6h2.3v4.2h4.2v-4.8H0V15.3"/>
<path class="st0" d="M10.1,16.4l1.1-1.1h1.2v3.5h4.7v-1.2H13v-2.3h6.4v5.8H17l2.4,1.9v1.7h-1.7L13,21.1h-0.6v3.6h-2.3V16.4z"/>
<path class="st0" d="M20.7,15.2H30v9.4h-2.4v-7.1h-6.9V15.2"/>
<path class="st0" d="M32.3,15.3l1.1,1.1v8.4h-2.3v-8.4L32.3,15.3z"/>
<path class="st0" d="M38.5,15.2h1.7v1.6l-2.9,2.9l3.2,3.3v1.7h-1.6l-3.4-3.6L34,22.3v-3.2L38.5,15.2"/>
<path class="st0" d="M41.1,15.3h7.8l1.1,1.1l-1.1,1.2h-7.8L41.1,15.3z"/>
<path class="st0" d="M20.7,18.1H23v1.5h3.1l1.2,1.2l-1.2,1.1H23v2.8h-2.3V18.1z"/>
<path class="st0" d="M41.1,18.1h2.3v0.7h4.3l1.1,1.2l-1.1,1.1h-4.3v1.3h5.5l1.1,1.1l-1.1,1.2h-6.7l-1.1-1.2V18.1"/>
<rect x="25.7" y="27.7" class="st0" width="0.6" height="2.3"/>
<rect x="14.8" y="27.7" class="st0" width="0.6" height="2.3"/>
<rect x="18.5" y="27.7" class="st0" width="0.6" height="2.3"/>
<rect x="39.9" y="27.7" class="st0" width="0.6" height="2.3"/>
<path class="st0" d="M0,25.8v9h50v-9H0z M1.9,33.7H1.2V27h0.6V33.7z M5.6,33.6H5c-0.1-0.7-0.2-1.4-0.3-2.1c-0.1-0.7-0.2-1.4-0.3-2.2
	v4.3H3.7v-6.7h0.6c0.1,0.7,0.2,1.4,0.4,2.1s0.3,1.5,0.3,2.2V30l-0.1-0.6v-2.5h0.6L5.6,33.6z M9,27.7H8.4v6H7.8v-6H7.2V27H9V27.7z
	 M12.5,27.7h-1.2V30h0.9v0.7h-0.9V33h1.2v0.7h-1.2c-0.2,0-0.3-0.1-0.4-0.2c-0.1-0.1-0.2-0.3-0.2-0.5v-5.3c0-0.2,0.1-0.4,0.2-0.5
	c0.1-0.1,0.3-0.2,0.4-0.2h1.2L12.5,27.7z M15.5,33.7c0-0.1-0.1-0.2-0.1-0.2c0-0.1,0-0.2,0-0.3v-2.5h-0.6v3h-0.6V27h1.2
	c0.2,0,0.3,0.1,0.4,0.2c0.1,0.1,0.2,0.3,0.2,0.5v2.1c0,0.1,0,0.3-0.1,0.4c-0.1,0.1-0.1,0.1-0.2,0.2c0.1,0,0.1,0.1,0.2,0.2
	c0.1,0.1,0.1,0.3,0.1,0.4v2.2c0,0.1,0,0.2,0,0.2c0,0.1,0.1,0.2,0.1,0.2L15.5,33.7z M19.8,30c0,0.2-0.1,0.4-0.2,0.5
	c-0.1,0.1-0.3,0.2-0.4,0.2h-0.6v3h-0.6V27h1.2c0.2,0,0.3,0.1,0.4,0.2c0.1,0.1,0.2,0.3,0.2,0.5L19.8,30z M23.4,33.7h-1.9V27h0.6v6
	h0.6v-1.4h0.6L23.4,33.7z M26.9,33.7h-0.6v-3h-0.6v3h-0.6V28c0-0.1,0-0.3,0.1-0.4c0-0.1,0.1-0.2,0.2-0.3c0.1-0.1,0.2-0.2,0.3-0.2
	c0.2-0.1,0.5-0.1,0.7,0c0.1,0.1,0.2,0.1,0.3,0.2c0.1,0.1,0.2,0.2,0.2,0.3c0.1,0.1,0.1,0.3,0.1,0.4V33.7z M30.7,33.7h-0.6
	c-0.1-0.7-0.2-1.4-0.4-2.1c-0.1-0.7-0.2-1.4-0.3-2.2v4.3h-0.6V27h0.6c0,0.7,0.1,1.4,0.3,2.1c0.1,0.7,0.3,1.4,0.4,2.2V27h0.7V33.7z
	 M34.4,27.7h-1.2V30h0.9v0.7h-0.9V33h1.2v0.7h-1.2c-0.2,0-0.3-0.1-0.4-0.2c-0.1-0.1-0.2-0.3-0.2-0.5v-5.3c0-0.2,0.1-0.4,0.2-0.5
	c0.1-0.1,0.3-0.2,0.4-0.2h1.2V27.7z M37.7,27.7h-0.6v6h-0.6v-6h-0.6V27h1.9L37.7,27.7z M41.2,33.7h-0.6v-3h-0.6v3h-0.6V28
	c0-0.1,0-0.3,0.1-0.4c0-0.1,0.1-0.2,0.2-0.3c0.1-0.1,0.2-0.2,0.3-0.2c0.2-0.1,0.5-0.1,0.7,0c0.1,0.1,0.2,0.1,0.3,0.2
	c0.1,0.1,0.2,0.2,0.2,0.3c0.1,0.1,0.1,0.3,0.1,0.4L41.2,33.7z M44.3,33.7c0-0.1-0.1-0.2-0.1-0.2c0-0.1,0-0.2,0-0.3v-2.5h-0.6v3H43
	V27h1.3c0.2,0,0.3,0.1,0.4,0.2c0.1,0.1,0.2,0.3,0.2,0.5v2.1c0,0.1,0,0.3-0.1,0.4c-0.1,0.1-0.1,0.1-0.2,0.2c0.1,0,0.1,0.1,0.2,0.2
	c0.1,0.1,0.1,0.3,0.1,0.4v2.2c0,0.1,0,0.2,0,0.2c0,0.1,0.1,0.2,0.1,0.2L44.3,33.7z M48.6,29.7c0,0.2-0.1,0.4-0.2,0.6
	c-0.1,0.2-0.3,0.3-0.5,0.4v3h-0.6v-3c-0.2-0.1-0.3-0.2-0.5-0.4c-0.1-0.2-0.2-0.4-0.2-0.6V27h0.6v3H48v-3h0.6L48.6,29.7z"/>
<rect x="43.6" y="27.7" class="st0" width="0.6" height="2.3"/>
</svg>
